<svg xmlns="http://www.w3.org/2000/svg" id="Layer_1" data-name="Layer 1" viewBox="0 0 24 24" width="512" height="512">
  <path fill="#EAEAEA" d="M19,0H5C2.243,0,0,2.243,0,5v14c0,2.757,2.243,5,5,5h1.252c-.352-.891-.314-1.901,.169-2.746l6.867-11.689c.549-.958,1.592-1.565,2.712-1.565s2.163,.607,2.723,1.584l5.277,8.982V5c0-2.757-2.243-5-5-5ZM8,5c-.552,0-1-.448-1-1s.448-1,1-1,1,.448,1,1-.448,1-1,1Zm-4,0c-.552,0-1-.448-1-1s.448-1,1-1,1,.448,1,1-.448,1-1,1Z"/>
  <path fill="#FF3B30" fill-rule="evenodd" d="M23.843,22.248l-6.855-11.67c-.441-.771-1.533-.771-1.974,0l-6.855,11.67c-.444,.777,.105,1.752,.987,1.752h13.711c.882,0,1.432-.976,.987-1.752Zm-7.843-.248c-.552,0-1-.448-1-1s.448-1,1-1,1,.448,1,1-.448,1-1,1Zm1-4c0,.552-.447,1-1,1s-1-.448-1-1v-3c0-.552,.447-1,1-1s1,.448,1,1v3Z"/>
</svg>
